<?xml version="1.0" encoding="UTF-8" standalone="no"?>
<!-- Created with Inkscape (http://www.inkscape.org/) -->

<svg
   width="2284"
   height="384"
   viewBox="0 0 604.30831 101.6"
   version="1.1"
   id="svg1"
   inkscape:version="1.3.2 (091e20e, 2023-11-25, custom)"
   sodipodi:docname="COTE_EN_LOGO_LIGHT.svg"
   xmlns:inkscape="http://www.inkscape.org/namespaces/inkscape"
   xmlns:sodipodi="http://sodipodi.sourceforge.net/DTD/sodipodi-0.dtd"
   xmlns="http://www.w3.org/2000/svg"
   xmlns:svg="http://www.w3.org/2000/svg">
  <sodipodi:namedview
     id="namedview1"
     pagecolor="#ffffff"
     bordercolor="#000000"
     borderopacity="0.25"
     inkscape:showpageshadow="2"
     inkscape:pageopacity="0.0"
     inkscape:pagecheckerboard="0"
     inkscape:deskcolor="#d1d1d1"
     inkscape:document-units="mm"
     inkscape:zoom="0.19937227"
     inkscape:cx="614.42848"
     inkscape:cy="-634.49145"
     inkscape:window-width="1600"
     inkscape:window-height="829"
     inkscape:window-x="-8"
     inkscape:window-y="-8"
     inkscape:window-maximized="1"
     inkscape:current-layer="layer1" />
  <defs
     id="defs1" />
  <g
     inkscape:label="圖層 1"
     inkscape:groupmode="layer"
     id="layer1">
    <rect
       style="opacity:1;fill:#de266c;stroke:#000000;stroke-width:1.05833;stroke-linejoin:round;stroke-dasharray:none;fill-opacity:1"
       id="rect1"
       width="50.270824"
       height="50.270824"
       x="0.52916503"
       y="0.52916503"
       ry="0" />
    <path
       id="rect2"
       style="opacity:1;fill:#ffffff;stroke-width:5.54516;stroke-linejoin:round"
       d="m 13.542846,24.992127 c 0.157605,12.93648 3.049085,18.38049 12.563615,18.38049 5.550654,0 11.657439,-1.98395 11.657439,-12.31717 h -5.973794 c 0,5.99724 -2.979084,6.72488 -5.573562,7.04669 -6.769001,0.26356 -6.527367,-6.80815 -6.527367,-15.14154 0,-8.33339 2.777764,-9.82645 6.745106,-9.82645 3.967342,0 5.355823,2.36971 5.355823,8.31413 H 37.7639 C 38.121053,12.913447 34.812322,8.1088969 26.874909,7.9607269 18.442679,7.8033269 13.385241,12.055657 13.542846,24.992127 Z"
       sodipodi:nodetypes="zzcczzzcccz" />
    <rect
       style="opacity:1;fill:#ffffff;stroke:#000000;stroke-width:1.05833;stroke-linejoin:round;stroke-dasharray:none"
       id="rect5"
       width="50.270836"
       height="50.270824"
       x="50.799999"
       y="0.52916509"
       ry="0" />
    <rect
       style="opacity:1;fill:#ffffff;stroke:#000000;stroke-width:1.05833;stroke-linejoin:round;stroke-dasharray:none"
       id="rect6"
       width="50.270836"
       height="50.270824"
       x="101.07083"
       y="0.52916509"
       ry="0" />
    <rect
       style="opacity:1;fill:#ffffff;stroke:#000000;stroke-width:1.05833;stroke-linejoin:round;stroke-dasharray:none"
       id="rect7"
       width="50.270836"
       height="50.270824"
       x="151.34166"
       y="0.52916509"
       ry="0" />
    <rect
       style="opacity:1;fill:#ffffff;stroke:#000000;stroke-width:1.05833;stroke-linejoin:round;stroke-dasharray:none"
       id="rect8"
       width="50.270836"
       height="50.270824"
       x="201.6125"
       y="0.52916509"
       ry="0" />
    <rect
       style="opacity:1;fill:#a4003e;stroke:#000000;stroke-width:1.05833;stroke-linejoin:round;stroke-dasharray:none;fill-opacity:1"
       id="rect9"
       width="50.270836"
       height="50.270824"
       x="251.88333"
       y="0.52916509"
       ry="0" />
    <rect
       style="opacity:1;fill:#ffffff;stroke:#000000;stroke-width:1.05833;stroke-linejoin:round;stroke-dasharray:none"
       id="rect10"
       width="50.270836"
       height="50.270824"
       x="553.50836"
       y="0.52916509"
       ry="0" />
    <rect
       style="opacity:1;fill:#a4003e;stroke:#000000;stroke-width:1.05833;stroke-linejoin:round;stroke-dasharray:none;fill-opacity:1"
       id="rect11"
       width="50.270836"
       height="50.270824"
       x="503.23749"
       y="0.52916509"
       ry="0" />
    <rect
       style="opacity:1;fill:#a4003e;stroke:#000000;stroke-width:1.05833;stroke-linejoin:round;stroke-dasharray:none;fill-opacity:1"
       id="rect12"
       width="50.270836"
       height="50.270824"
       x="553.50836"
       y="50.800011"
       ry="0" />
    <rect
       style="opacity:1;fill:#ffffff;stroke:#000000;stroke-width:1.05833;stroke-linejoin:round;stroke-dasharray:none"
       id="rect13"
       width="50.270836"
       height="50.270824"
       x="503.23749"
       y="50.800011"
       ry="0" />
    <rect
       style="opacity:1;fill:#a4003e;stroke:#000000;stroke-width:1.05833;stroke-linejoin:round;stroke-dasharray:none;fill-opacity:1"
       id="rect14"
       width="50.270836"
       height="50.270824"
       x="452.96667"
       y="50.800011"
       ry="0" />
    <rect
       style="opacity:1;fill:#ffffff;stroke:#000000;stroke-width:1.05833;stroke-linejoin:round;stroke-dasharray:none"
       id="rect15"
       width="50.270836"
       height="50.270824"
       x="402.69583"
       y="50.800011"
       ry="0" />
    <rect
       style="opacity:1;fill:#e5007f;stroke:#000000;stroke-width:1.05833;stroke-linejoin:round;stroke-dasharray:none;fill-opacity:1"
       id="rect16"
       width="50.270836"
       height="50.270824"
       x="352.42499"
       y="50.800011"
       ry="0" />
    <rect
       style="opacity:1;fill:#ffffff;stroke:#000000;stroke-width:1.05833;stroke-linejoin:round;stroke-dasharray:none"
       id="rect17"
       width="50.270836"
       height="50.270824"
       x="402.69583"
       y="0.52916503"
       ry="0" />
    <rect
       style="opacity:1;fill:#ffffff;stroke:#000000;stroke-width:1.05833;stroke-linejoin:round;stroke-dasharray:none"
       id="rect18"
       width="50.270836"
       height="50.270824"
       x="352.42499"
       y="0.52916503"
       ry="0" />
    <rect
       style="opacity:1;fill:#ffffff;stroke:#000000;stroke-width:1.05833;stroke-linejoin:round;stroke-dasharray:none"
       id="rect19"
       width="50.270836"
       height="50.270824"
       x="302.15417"
       y="0.52916503"
       ry="0" />
    <rect
       style="opacity:1;fill:#e5007f;stroke:#000000;stroke-width:1.05833;stroke-linejoin:round;stroke-dasharray:none;fill-opacity:1"
       id="rect20"
       width="50.270836"
       height="50.270824"
       x="151.34166"
       y="50.800011"
       ry="0" />
    <rect
       style="opacity:1;fill:#ffffff;stroke:#000000;stroke-width:1.05833;stroke-linejoin:round;stroke-dasharray:none"
       id="rect21"
       width="50.270836"
       height="50.270824"
       x="201.6125"
       y="50.800011"
       ry="0" />
    <rect
       style="opacity:1;fill:#a4003e;stroke:#000000;stroke-width:1.05833;stroke-linejoin:round;stroke-dasharray:none;fill-opacity:1"
       id="rect22"
       width="50.270836"
       height="50.270824"
       x="251.88333"
       y="50.800011"
       ry="0" />
    <path
       style="font-size:171.376px;font-family:Oswald;-inkscape-font-specification:Oswald;opacity:1;fill:#000000;stroke-width:3.12404;stroke-linejoin:round"
       d="M 66.500982,42.751274 V 8.5778805 h 5.83267 V 37.615685 h 13.0362 v 5.135589 z"
       id="text3"
       aria-label="L"
       sodipodi:nodetypes="ccccccc" />
    <path
       style="font-size:171.376px;font-family:Oswald;-inkscape-font-specification:Oswald;opacity:1;fill:#000000;stroke-width:3.12404;stroke-linejoin:round"
       d="M 418.39681,93.022119 V 58.848726 h 5.83267 V 87.88653 h 13.0362 v 5.135589 z"
       id="path22"
       aria-label="L"
       sodipodi:nodetypes="ccccccc" />
    <path
       id="text3-5"
       style="font-size:185.969px;font-family:Oswald;-inkscape-font-specification:Oswald;opacity:1;fill:#000000;stroke-width:3.39003;stroke-linejoin:round"
       d="M 122.28065,8.4439228 113.2812,42.885232 h 6.03529 l 2.01951,-7.888924 h 9.78649 l 1.91616,7.888924 h 6.09265 L 130.07449,8.4439228 Z m 3.92534,6.8032032 3.69435,14.806847 h -7.33392 z" />
    <path
       style="font-size:172.416px;font-family:'Trada Sans';-inkscape-font-specification:'Trada Sans';opacity:1;fill:#000000;stroke-width:3.14299;stroke-linejoin:round"
       d="m 170.21819,31.244942 c 0.0851,4.337306 1.74232,7.088839 6.36525,7.088839 5.22329,0 5.86442,-3.510805 5.89024,-4.722875 0.11194,-5.255995 -4.76567,-5.163016 -8.38314,-5.967876 -3.61747,-0.804859 -9.20946,-1.596764 -9.20946,-9.723742 0,-8.1269786 7.77669,-9.8758638 10.68969,-9.8758638 10.87275,0 12.46156,4.8401588 12.41801,12.4607008 h -5.76633 c 0.17273,-3.884055 -1.03239,-7.309294 -5.46885,-7.367369 -3.22191,0 -5.89337,1.421356 -5.99041,4.750317 -0.0871,2.987816 2.36097,4.534898 5.22767,4.945986 2.70742,0.388246 5.39923,0.84342 7.95238,2.021704 3.82979,1.712536 4.42439,5.143464 4.42439,8.218055 0,9.280395 -8.30936,10.212912 -11.73663,10.212912 -5.09836,0 -12.04448,-1.275432 -12.04448,-12.040788 z"
       id="text4"
       aria-label="S"
       sodipodi:nodetypes="csszzzccssscsscc" />
    <path
       style="font-size:172.416px;font-family:'Trada Sans';-inkscape-font-specification:'Trada Sans';opacity:1;fill:#000000;stroke-width:3.14299;stroke-linejoin:round"
       d="m 220.48904,31.244942 c 0.0851,4.337306 1.74232,7.088839 6.36525,7.088839 5.22329,0 5.86442,-3.510805 5.89024,-4.722875 0.11194,-5.255995 -4.76567,-5.163016 -8.38314,-5.967876 -3.61747,-0.804859 -9.20946,-1.596764 -9.20946,-9.723742 0,-8.1269784 7.77669,-9.8758634 10.68969,-9.8758634 10.87275,0 12.46156,4.8401594 12.41801,12.4607004 h -5.76633 c 0.17273,-3.884055 -1.03239,-7.309293 -5.46885,-7.367368 -3.22191,0 -5.89337,1.421355 -5.99041,4.750316 -0.0871,2.987816 2.36097,4.534898 5.22767,4.945986 2.70742,0.388246 5.39923,0.84342 7.95238,2.021704 3.82979,1.712536 4.42439,5.143464 4.42439,8.218055 0,9.280395 -8.30936,10.212912 -11.73663,10.212912 -5.09836,0 -12.04448,-1.275432 -12.04448,-12.040788 z"
       id="path23"
       aria-label="S"
       sodipodi:nodetypes="csszzzccssscsscc" />
    <path
       d="m 281.76173,42.773011 -4.92061,-13.017079 c -1.64924,0.177024 -4.96343,0.147486 -4.96343,0.147486 v 12.869593 h -5.91851 V 8.5561438 h 9.90336 c 6.20884,0 12.18546,1.120591 12.18546,10.4222162 0,5.368238 -1.61653,8.12501 -5.57727,9.854053 l 5.60758,13.940598 z m -3.91616,-17.931858 c 1.46628,0 4.29512,-1.375632 4.29512,-5.567825 0,-4.192193 -2.59856,-5.78862 -4.38124,-5.78862 h -5.88176 v 11.356445 z"
       id="text4-5"
       style="font-size:173.891px;font-family:'Trada Sans';-inkscape-font-specification:'Trada Sans';opacity:1;fill:#ffffff;stroke-width:3.16989;stroke-linejoin:round"
       aria-label="R"
       sodipodi:nodetypes="ccccccsscccszsccs" />
    <path
       d="M 412.03266,42.676014 V 8.6531404 h 8.55248 l 7.22367,23.8183686 7.31308,-23.8183686 h 8.50794 V 42.676014 h -5.95698 l 0.0448,-23.193518 -7.09893,23.193518 h -5.61974 l -7.18835,-23.095195 0.0448,23.095195 z"
       id="text4-0"
       style="font-size:177.285px;font-family:'Trada Sans';-inkscape-font-specification:'Trada Sans';opacity:1;fill:#000000;stroke-width:3.23173;stroke-linejoin:round"
       aria-label="M"
       sodipodi:nodetypes="cccccccccccccc" />
    <path
       d="M 475.1956,93.025589 V 58.845257 h 5.81299 v 34.180332 z"
       id="text4-03"
       style="font-size:177.673px;font-family:Oswald;-inkscape-font-specification:Oswald;opacity:1;fill:#ffffff;stroke-width:3.23882;stroke-linejoin:round"
       aria-label="I" />
    <path
       d="m 339.8146,25.949119 c -0.0683,7.209978 -0.34823,17.382932 -12.52848,17.382932 -12.18025,0 -12.537,-10.412385 -12.52845,-17.641606 0.009,-7.229221 0.31226,-17.6933413 12.62827,-17.6933413 12.31602,0 12.49698,10.7420373 12.42866,17.9520153 z m -5.96425,0 c 0.0509,-4.842127 -0.18702,-12.795566 -6.46441,-12.795566 -6.27738,0 -6.80898,7.834615 -6.78832,12.692097 0.0208,4.857481 0.10856,12.329813 6.73843,12.329813 6.62987,0 6.46338,-7.384217 6.5143,-12.226344 z"
       id="text4-4"
       style="font-size:192.062px;font-family:'Trada Sans';-inkscape-font-specification:'Trada Sans';opacity:1;fill:#000000;stroke-width:3.5011;stroke-linejoin:round"
       aria-label="0"
       sodipodi:nodetypes="zzzzzzzzzz" />
    <path
       d="m 390.08541,25.949119 c -0.0683,7.209978 -0.34823,17.382932 -12.52848,17.382932 -12.18025,0 -12.537,-10.412385 -12.52845,-17.641606 0.009,-7.229221 0.31226,-17.6933414 12.62827,-17.6933414 12.31602,0 12.49698,10.7420374 12.42866,17.9520154 z m -5.96425,0 c 0.0509,-4.842127 -0.18702,-12.795566 -6.46441,-12.795566 -6.27738,0 -6.80898,7.834615 -6.78832,12.692097 0.0208,4.857481 0.10856,12.329813 6.73843,12.329813 6.62987,0 6.46338,-7.384217 6.5143,-12.226344 z"
       id="path1"
       style="font-size:192.062px;font-family:'Trada Sans';-inkscape-font-specification:'Trada Sans';opacity:1;fill:#000000;stroke-width:3.5011;stroke-linejoin:round"
       aria-label="0"
       sodipodi:nodetypes="zzzzzzzzzz" />
    <path
       d="m 540.89791,25.949118 c -0.0683,7.209978 -0.34823,17.382933 -12.52848,17.382933 -12.18025,0 -12.537,-10.412386 -12.52845,-17.641607 0.009,-7.229221 0.31226,-17.6933405 12.62827,-17.6933405 12.31602,0 12.49698,10.7420365 12.42866,17.9520145 z m -5.96425,0 c 0.0509,-4.842127 -0.18702,-12.795566 -6.46441,-12.795566 -6.27738,0 -6.80898,7.834615 -6.78832,12.692097 0.0208,4.857481 0.10856,12.329813 6.73843,12.329813 6.62987,0 6.46338,-7.384217 6.5143,-12.226344 z"
       id="path2"
       style="font-size:192.062px;font-family:'Trada Sans';-inkscape-font-specification:'Trada Sans';opacity:1;fill:#ffffff;stroke-width:3.5011;stroke-linejoin:round"
       aria-label="0"
       sodipodi:nodetypes="zzzzzzzzzz" />
    <path
       style="font-size:178.211px;font-family:'FOT-Rodin ProN';-inkscape-font-specification:'FOT-Rodin ProN';opacity:1;fill:#000000;stroke-width:3.24863;stroke-linejoin:round"
       d="M 574.5438,42.73306 V 27.809077 h 11.79953 V 22.780196 H 574.5438 v -9.198332 h 14.04197 V 8.5960948 H 568.70179 V 42.73306 Z"
       id="text4-7"
       aria-label="F"
       sodipodi:nodetypes="ccccccccccc" />
    <path
       id="text4-51"
       style="font-size:178.211px;font-family:'FOT-Rodin ProN';-inkscape-font-specification:'FOT-Rodin ProN';opacity:1;fill:#ffffff;stroke-width:3.24863;stroke-linejoin:round"
       d="m 568.70174,58.866954 v 34.136938 h 19.88407 v -4.98574 h -14.04204 v -9.93842 h 11.79981 v -5.02863 h -11.79981 v -9.198406 h 14.04204 v -4.985742 z"
       sodipodi:nodetypes="ccccccccccccc" />
    <path
       id="path3"
       style="font-size:178.211px;font-family:'FOT-Rodin ProN';-inkscape-font-specification:'FOT-Rodin ProN';opacity:1;fill:#ffffff;stroke-width:3.24863;stroke-linejoin:round"
       d="m 367.61837,58.866954 v 34.136938 h 19.88407 v -4.98574 H 373.4604 v -9.93842 h 11.79981 v -5.02863 H 373.4604 v -9.198406 h 14.04204 v -4.985742 z"
       sodipodi:nodetypes="ccccccccccccc" />
    <path
       id="path4"
       style="font-size:178.211px;font-family:'FOT-Rodin ProN';-inkscape-font-specification:'FOT-Rodin ProN';opacity:1;fill:#ffffff;stroke-width:3.24863;stroke-linejoin:round"
       d="m 267.07671,58.866954 v 34.136938 h 19.88407 v -4.98574 h -14.04204 v -9.93842 h 11.79981 v -5.02863 h -11.79981 v -9.198406 h 14.04204 v -4.985742 z"
       sodipodi:nodetypes="ccccccccccccc" />
    <path
       d="m 179.44294,92.976128 v -29.09525 h 8.04562 v -4.98616 H 165.4656 v 4.98616 h 8.04565 v 29.09525 z"
       id="text4-2"
       style="font-size:166.267px;font-family:'FOT-Rodin ProN';-inkscape-font-specification:'FOT-Rodin ProN';opacity:1;fill:#ffffff;stroke-width:3.03088;stroke-linejoin:round"
       aria-label="T"
       sodipodi:nodetypes="ccccccccc" />
    <path
       d="M 531.33877,92.976129 V 63.880876 h 8.04562 v -4.98616 h -22.02296 v 4.98616 h 8.04565 v 29.095253 z"
       id="path5"
       style="font-size:166.267px;font-family:'FOT-Rodin ProN';-inkscape-font-specification:'FOT-Rodin ProN';opacity:1;fill:#000000;stroke-width:3.03088;stroke-linejoin:round"
       aria-label="T"
       sodipodi:nodetypes="ccccccccc" />
    <path
       d="m 215.21932,93.032493 v -34.19414 h 5.72744 v 14.21239 h 11.64405 v -14.21239 h 5.68571 v 34.19414 h -5.68571 v -14.94156 h -11.64405 v 14.94156 z"
       id="text5"
       style="font-size:173.977px;font-family:'Trada Sans';-inkscape-font-specification:'Trada Sans';opacity:1;fill:#000000;stroke-width:3.17145;stroke-linejoin:round"
       aria-label="H"
       sodipodi:nodetypes="ccccccccccccc" />
  </g>
</svg>
